0
SECTION
2
HEADER
9
$ACADVER
1
AC1014
9
$HANDSEED
5
FFFF
0
ENDSEC
0
SECTION
2
TABLES
0
TABLE
2
VPORT
5
8
100
AcDbSymbolTable
0
ENDTAB
0
TABLE
2
LTYPE
5
5
100
AcDbSymbolTable
0
LTYPE
5
14
100
AcDbSymbolTableRecord
100
AcDbLinetypeTableRecord
2
BYBLOCK
70
0
0
LTYPE
5
15
100
AcDbSymbolTableRecord
100
AcDbLinetypeTableRecord
2
BYLAYER
70
0
0
ENDTAB
0
TABLE
2
LAYER
5
2
100
AcDbSymbolTable
70
2
0
LAYER
5
50
100
AcDbSymbolTableRecord
100
AcDbLayerTableRecord
2
0
70
0
6
CONTINUOUS
0
ENDTAB
0
TABLE
2
STYLE
5
3
100
AcDbSymbolTable
70
1
0
STYLE
5
11
100
AcDbSymbolTableRecord
100
AcDbTextStyleTableRecord
2
STANDARD
70
0
0
ENDTAB
0
TABLE
2
VIEW
5
6
100
AcDbSymbolTable
70
0
0
ENDTAB
0
TABLE
2
UCS
5
7
100
AcDbSymbolTable
70
0
0
ENDTAB
0
TABLE
2
APPID
5
9
100
AcDbSymbolTable
70
2
0
APPID
5
12
100
AcDbSymbolTableRecord
100
AcDbRegAppTableRecord
2
ACAD
70
0
0
ENDTAB
0
TABLE
2
DIMSTYLE
5
A
100
AcDbSymbolTable
70
1
0
ENDTAB
0
TABLE
2
BLOCK_RECORD
5
1
100
AcDbSymbolTable
70
1
0
BLOCK_RECORD
5
1F
100
AcDbSymbolTableRecord
100
AcDbBlockTableRecord
2
*MODEL_SPACE
0
BLOCK_RECORD
5
1B
100
AcDbSymbolTableRecord
100
AcDbBlockTableRecord
2
*PAPER_SPACE
0
ENDTAB
0
ENDSEC
0
SECTION
2
BLOCKS
0
BLOCK
5
20
100
AcDbEntity
100
AcDbBlockBegin
2
*MODEL_SPACE
0
ENDBLK
5
21
100
AcDbEntity
100
AcDbBlockEnd
0
BLOCK
5
1C
100
AcDbEntity
100
AcDbBlockBegin
2
*PAPER_SPACE
0
ENDBLK
5
1D
100
AcDbEntity
100
AcDbBlockEnd
0
ENDSEC
0
SECTION
2
ENTITIES
0
LWPOLYLINE
5
100
100
AcDbEntity
8
0
100
AcDbPolyline
90
6
70
1
43
0.0
10
1585.5825885774723
20
1712.2581753379059
10
1585.5825885774723
20
1718.283221806852
10
1570.5806174215991
20
1718.283221806852
10
1567.5806174215991
20
1718.283221806852
10
1567.5806174215991
20
1712.2581753379059
10
1570.5806174215991
20
1712.2581753379059
0
LWPOLYLINE
5
101
100
AcDbEntity
8
0
100
AcDbPolyline
90
6
70
1
43
0.0
10
1621.7755768867401
20
1712.2581753379059
10
1621.7755768867401
20
1718.283221806852
10
1636.7775480426133
20
1718.283221806852
10
1639.7775480426135
20
1718.283221806852
10
1639.7775480426135
20
1712.2581753379059
10
1636.7775480426133
20
1712.2581753379059
0
LWPOLYLINE
5
102
100
AcDbEntity
8
0
100
AcDbPolyline
90
6
70
1
43
0.0
10
1585.5825885774723
20
1732.2581753379059
10
1585.5825885774723
20
1738.283221806852
10
1570.5806174215991
20
1738.283221806852
10
1567.5806174215991
20
1738.283221806852
10
1567.5806174215991
20
1732.2581753379059
10
1570.5806174215991
20
1732.2581753379059
0
LWPOLYLINE
5
103
100
AcDbEntity
8
0
100
AcDbPolyline
90
6
70
1
43
0.0
10
1621.7755768867401
20
1732.2581753379059
10
1621.7755768867401
20
1738.283221806852
10
1636.7775480426133
20
1738.283221806852
10
1639.7775480426135
20
1738.283221806852
10
1639.7775480426135
20
1732.2581753379059
10
1636.7775480426133
20
1732.2581753379059
0
LINE
5
104
100
AcDbEntity
8
0
100
AcDbLine
10
1621.7755768867403
20
1738.2773754607058
30
0
11
1621.7755768867401
21
1732.2581753379059
31
0
0
LWPOLYLINE
5
105
100
AcDbEntity
8
0
100
AcDbPolyline
90
4
70
1
43
0.0
10
1591.7755768867401
20
1712.2581753379059
10
1591.7755768867401
20
1718.283221806852
10
1616.7775480426133
20
1718.283221806852
10
1616.7775480426133
20
1712.2581753379059
0
LINE
5
106
100
AcDbEntity
8
0
100
AcDbLine
10
1624.6353407686684
20
1715.2773754607056
30
0
11
1624.6353407686684
21
1715.2581753379056
31
0
0
LWPOLYLINE
5
107
100
AcDbEntity
8
0
100
AcDbPolyline
90
4
70
1
43
0.0
10
1591.7755768867401
20
1732.2581753379059
10
1591.7755768867401
20
1738.283221806852
10
1616.7775480426133
20
1738.283221806852
10
1616.7775480426133
20
1732.2581753379059
0
LWPOLYLINE
5
108
100
AcDbEntity
8
0
100
AcDbPolyline
90
8
70
1
43
0.0
10
1559.7755768867401
20
1594.3633819450647
10
1559.7755768867366
20
1742.0908175131287
42
-0.41457078333922198
10
1564.7755791325083
20
1747.0969089283881
10
1644.7732026106796
20
1747.0969089283847
42
-0.41457078317981683
10
1649.7732048564478
20
1742.0908175158459
10
1649.7732048564478
20
1594.3633759890072
42
-0.41421356237309509
10
1644.7732048564478
20
1589.3633759890072
10
1564.7755828430516
20
1589.3633759890074
42
-0.41421426018368163
0
CIRCLE
5
109
100
AcDbEntity
8
0
100
AcDbCircle
10
1574.6678696305025
20
1603.7979473342818
30
0
40
2.75
0
CIRCLE
5
110
100
AcDbEntity
8
0
100
AcDbCircle
10
1574.6678696305935
20
1623.7979473343105
30
0
40
2.75
0
CIRCLE
5
111
100
AcDbEntity
8
0
100
AcDbCircle
10
1634.8809121126874
20
1603.7979473342805
30
0
40
2.75
0
CIRCLE
5
112
100
AcDbEntity
8
0
100
AcDbCircle
10
1634.8809121125933
20
1623.7979473343084
30
0
40
2.75
0
CIRCLE
5
113
100
AcDbEntity
8
0
100
AcDbCircle
10
1565.6394434529182
20
1603.7979473434525
30
0
40
2.75
0
CIRCLE
5
114
100
AcDbEntity
8
0
100
AcDbCircle
10
1643.7709121126868
20
1603.7979473342787
30
0
40
2.75
0
CIRCLE
5
115
100
AcDbEntity
8
0
100
AcDbCircle
10
1565.6394434529193
20
1623.7979473434511
30
0
40
2.75
0
CIRCLE
5
116
100
AcDbEntity
8
0
100
AcDbCircle
10
1643.7709121125945
20
1623.7979473343105
30
0
40
2.75
0
LWPOLYLINE
5
117
100
AcDbEntity
8
0
100
AcDbPolyline
90
8
70
1
43
0.0
10
1587.6353407686681
20
1698.2875754607039
42
0.41421356237306728
10
1584.6353407686681
20
1695.2875754607041
10
1584.6353407686681
20
1695.268375337904
42
0.41421356237309509
10
1587.6353407686681
20
1692.2683753379038
10
1621.6353407686684
20
1692.2683753379038
42
0.41421356237309509
10
1624.6353407686684
20
1695.268375337904
10
1624.6353407686684
20
1695.2875754607041
42
0.41421356237306728
10
1621.6353407686684
20
1698.2875754607039
0
CIRCLE
5
118
100
AcDbEntity
8
0
100
AcDbCircle
10
1565.6568740905075
20
1592.1414095902492
30
0
40
1.523999999999972
0
CIRCLE
5
119
100
AcDbEntity
8
0
100
AcDbCircle
10
1585.6336039752323
20
1600.4125733963315
30
0
40
1.5240000000000009
0
CIRCLE
5
120
100
AcDbEntity
8
0
100
AcDbCircle
10
1643.8919076526827
20
1592.1414095902512
30
0
40
1.523999999999972
0
CIRCLE
5
121
100
AcDbEntity
8
0
100
AcDbCircle
10
1623.9151777679554
20
1600.4125733963301
30
0
40
1.5240000000000289
0
CIRCLE
5
122
100
AcDbEntity
8
0
100
AcDbCircle
10
1565.6394434530105
20
1678.2247375739148
30
0
40
2.75
0
CIRCLE
5
123
100
AcDbEntity
8
0
100
AcDbCircle
10
1565.6394434530102
20
1658.2679375739144
30
0
40
2.7500000000000568
0
CIRCLE
5
124
100
AcDbEntity
8
0
100
AcDbCircle
10
1643.7709121126852
20
1678.2247375831134
30
0
40
2.75
0
CIRCLE
5
125
100
AcDbEntity
8
0
100
AcDbCircle
10
1643.7709121126868
20
1658.267937583116
30
0
40
2.7500000000000568
0
CIRCLE
5
126
100
AcDbEntity
8
0
100
AcDbCircle
10
1634.6336624350406
20
1668.2329530081142
30
0
40
3.5700000000001069
0
CIRCLE
5
127
100
AcDbEntity
8
0
100
AcDbCircle
10
1634.6323783852113
20
1698.3237736773744
30
0
40
3.5700000000001069
0
CIRCLE
5
128
100
AcDbEntity
8
0
100
AcDbCircle
10
1634.6323783852113
20
1638.3237736773767
30
0
40
3.570000000000078
0
CIRCLE
5
129
100
AcDbEntity
8
0
100
AcDbCircle
10
1643.7732048564467
20
1642.2129746926653
30
0
40
3.570000000000022
0
CIRCLE
5
130
100
AcDbEntity
8
0
100
AcDbCircle
10
1643.7732048564467
20
1695.1923946926661
30
0
40
3.5699999999999648
0
CIRCLE
5
131
100
AcDbEntity
8
0
100
AcDbCircle
10
1565.7755768867405
20
1642.2129746926698
30
0
40
3.570000000000022
0
CIRCLE
5
132
100
AcDbEntity
8
0
100
AcDbCircle
10
1574.7766931008707
20
1668.2329530081142
30
0
40
3.5700000000000505
0
CIRCLE
5
133
100
AcDbEntity
8
0
100
AcDbCircle
10
1614.7709120828995
20
1673.1963375739122
30
0
40
2.75
0
CIRCLE
5
134
100
AcDbEntity
8
0
100
AcDbCircle
10
1594.7051777679558
20
1673.2125733963303
30
0
40
2.749999999999972
0
CIRCLE
5
135
100
AcDbEntity
8
0
100
AcDbCircle
10
1614.6819076526799
20
1600.3964095902511
30
0
40
2.9999999999999147
0
CIRCLE
5
136
100
AcDbEntity
8
0
100
AcDbCircle
10
1594.7051777679562
20
1600.412573396331
30
0
40
3.0000000000000004
0
CIRCLE
5
137
100
AcDbEntity
8
0
100
AcDbCircle
10
1565.7755768867405
20
1695.1923946926695
30
0
40
3.570000000000022
0
CIRCLE
5
138
100
AcDbEntity
8
0
100
AcDbCircle
10
1614.7709120829968
20
1663.1963375739433
30
0
40
2.75
0
CIRCLE
5
139
100
AcDbEntity
8
0
100
AcDbCircle
10
1620.1768747212461
20
1608.2591160818558
30
0
40
1.7500000000000002
0
CIRCLE
5
140
100
AcDbEntity
8
0
100
AcDbCircle
10
1620.2302353599484
20
1639.255870629662
30
0
40
1.7500000000000282
0
CIRCLE
5
141
100
AcDbEntity
8
0
100
AcDbCircle
10
1594.7051777679558
20
1663.2125733963289
30
0
40
2.749999999999972
0
LINE
5
142
100
AcDbEntity
8
0
100
AcDbLine
10
1624.6353407686684
20
1735.2773754607056
30
0
11
1624.6353407686684
21
1735.2581753379056
31
0
0
CIRCLE
5
143
100
AcDbEntity
8
0
100
AcDbCircle
10
1574.7779771506987
20
1698.3237736773729
30
0
40
3.570000000000022
0
CIRCLE
5
144
100
AcDbEntity
8
0
100
AcDbCircle
10
1624.9748313285752
20
1683.6922912897903
30
0
40
3.0000000000000568
0
CIRCLE
5
145
100
AcDbEntity
8
0
100
AcDbCircle
10
1584.4244305012894
20
1683.797891291945
30
0
40
2.9886852836089299
0
CIRCLE
5
146
100
AcDbEntity
8
0
100
AcDbCircle
10
1624.9748313285752
20
1623.6922912897903
30
0
40
3.0000000000000289
0
CIRCLE
5
147
100
AcDbEntity
8
0
100
AcDbCircle
10
1584.4244305012894
20
1623.7978912919448
30
0
40
2.9886852836089299
0
CIRCLE
5
148
100
AcDbEntity
8
0
100
AcDbCircle
10
1589.2083774553539
20
1608.2841736754483
30
0
40
1.749999999999915
0
CIRCLE
5
149
100
AcDbEntity
8
0
100
AcDbCircle
10
1589.2051777679549
20
1639.2809739880495
30
0
40
1.749999999999972
0
CIRCLE
5
150
100
AcDbEntity
8
0
100
AcDbCircle
10
1604.7051777679555
20
1623.7841736754485
30
0
40
11.250000000000028
0
CIRCLE
5
151
100
AcDbEntity
8
0
100
AcDbCircle
10
1574.7779771506987
20
1638.3237736773758
30
0
40
3.5700000000000505
0
LINE
5
152
100
AcDbEntity
8
0
100
AcDbLine
10
1570.5806174215991
20
1738.283221806852
30
0
11
1573.5806174215991
21
1738.283221806852
31
0
0
LINE
5
153
100
AcDbEntity
8
0
100
AcDbLine
10
1570.5806174215991
20
1732.2581753379059
30
0
11
1573.5806174215991
21
1732.2581753379059
31
0
0
LINE
5
154
100
AcDbEntity
8
0
100
AcDbLine
10
1570.5806174215991
20
1718.283221806852
30
0
11
1573.5806174215991
21
1718.283221806852
31
0
0
LINE
5
155
100
AcDbEntity
8
0
100
AcDbLine
10
1570.5806174215991
20
1712.2581753379059
30
0
11
1573.5806174215991
21
1712.2581753379059
31
0
0
ENDSEC
0
SECTION
2
OBJECTS
0
DICTIONARY
5
C
100
AcDbDictionary
3
ACAD_GROUP
350
D
3
ACAD_MLINESTYLE
350
17
0
DICTIONARY
5
D
100
AcDbDictionary
0
DICTIONARY
5
1A
330
C
100
AcDbDictionary
0
DICTIONARY
5
17
100
AcDbDictionary
0
ENDSEC
0
EOF
