  0
SECTION
  2
HEADER
  9
$ACADVER
  1
AC1015
  9
$ACADMAINTVER
 70
     6
  9
$DWGCODEPAGE
  3
ANSI_1252
  9
$INSBASE
 10
0.0
 20
0.0
 30
0.0
  9
$EXTMIN
 10
0.0
 20
0.0
 30
0.0
  9
$EXTMAX
 10
118.9
 20
84.1
 30
0.0
  9
$LIMMIN
 10
0.0
 20
0.0
  9
$LIMMAX
 10
29.7
 20
21.0
  9
$ORTHOMODE
 70
     0
  9
$REGENMODE
 70
     1
  9
$FILLMODE
 70
     1
  9
$QTEXTMODE
 70
     0
  9
$MIRRTEXT
 70
     1
  9
$LTSCALE
 40
1.0
  9
$ATTMODE
 70
     1
  9
$TEXTSIZE
 40
0.35
  9
$TRACEWID
 40
1.0
  9
$TEXTSTYLE
  7
Standard
  9
$CLAYER
  8
0
  9
$CELTYPE
  6
ByLayer
  9
$CECOLOR
 62
   256
  9
$CELTSCALE
 40
1.0
  9
$DISPSILH
 70
     0
  9
$DIMSCALE
 40
1.0
  9
$DIMASZ
 40
0.3302
  9
$DIMEXO
 40
0.1
  9
$DIMDLI
 40
3.75
  9
$DIMRND
 40
0.0
  9
$DIMDLE
 40
0.0
  9
$DIMEXE
 40
0.1
  9
$DIMTP
 40
0.0
  9
$DIMTM
 40
0.0
  9
$DIMTXT
 40
0.35
  9
$DIMCEN
 40
2.5
  9
$DIMTSZ
 40
0.0
  9
$DIMTOL
 70
     0
  9
$DIMLIM
 70
     0
  9
$DIMTIH
 70
     1
  9
$DIMTOH
 70
     1
  9
$DIMSE1
 70
     0
  9
$DIMSE2
 70
     0
  9
$DIMTAD
 70
     1
  9
$DIMZIN
 70
     1
  9
$DIMBLK
  1

  9
$DIMASO
 70
     1
  9
$DIMSHO
 70
     1
  9
$DIMPOST
  1

  9
$DIMAPOST
  1

  9
$DIMALT
 70
     0
  9
$DIMALTD
 70
     3
  9
$DIMALTF
 40
0.3937007874
  9
$DIMLFAC
 40
1.0
  9
$DIMTOFL
 70
     1
  9
$DIMTVP
 40
0.0
  9
$DIMTIX
 70
     0
  9
$DIMSOXD
 70
     0
  9
$DIMSAH
 70
     0
  9
$DIMBLK1
  1

  9
$DIMBLK2
  1

  9
$DIMSTYLE
  2
ISO-25
  9
$DIMCLRD
 70
     0
  9
$DIMCLRE
 70
     0
  9
$DIMCLRT
 70
     0
  9
$DIMTFAC
 40
1.0
  9
$DIMGAP
 40
0.1524
  9
$DIMJUST
 70
     0
  9
$DIMSD1
 70
     0
  9
$DIMSD2
 70
     0
  9
$DIMTOLJ
 70
     0
  9
$DIMTZIN
 70
     1
  9
$DIMALTZ
 70
     0
  9
$DIMALTTZ
 70
     0
  9
$DIMUPT
 70
     0
  9
$DIMDEC
 70
     2
  9
$DIMTDEC
 70
     3
  9
$DIMALTU
 70
     2
  9
$DIMALTTD
 70
     3
  9
$DIMTXSTY
  7
Standard
  9
$DIMAUNIT
 70
     0
  9
$DIMADEC
 70
     2
  9
$DIMALTRND
 40
0.0
  9
$DIMAZIN
 70
     0
  9
$DIMDSEP
 70
    44
  9
$DIMATFIT
 70
     3
  9
$DIMFRAC
 70
     0
  9
$DIMLDRBLK
  1

  9
$DIMLUNIT
 70
     2
  9
$DIMLWD
 70
    -2
  9
$DIMLWE
 70
    -2
  9
$DIMTMOVE
 70
     0
  9
$LUNITS
 70
     2
  9
$LUPREC
 70
     3
  9
$SKETCHINC
 40
1.0
  9
$FILLETRAD
 40
10.0
  9
$AUNITS
 70
     0
  9
$AUPREC
 70
     2
  9
$MENU
  1
.
  9
$ELEVATION
 40
0.0
  9
$PELEVATION
 40
0.0
  9
$THICKNESS
 40
0.0
  9
$LIMCHECK
 70
     0
  9
$CHAMFERA
 40
0.0
  9
$CHAMFERB
 40
0.0
  9
$CHAMFERC
 40
0.0
  9
$CHAMFERD
 40
0.0
  9
$SKPOLY
 70
     0
  9
$TDCREATE
 40
2457067.986854155
  9
$TDUCREATE
 40
2457068.195187489
  9
$TDUPDATE
 40
2457067.986855197
  9
$TDUUPDATE
 40
2457068.19518853
  9
$TDINDWG
 40
0.0000000116
  9
$TDUSRTIMER
 40
0.0000000116
  9
$USRTIMER
 70
     1
  9
$ANGBASE
 50
0.0
  9
$ANGDIR
 70
     0
  9
$PDMODE
 70
     0
  9
$PDSIZE
 40
-1.0
  9
$PLINEWID
 40
0.0
  9
$SPLFRAME
 70
     0
  9
$SPLINETYPE
 70
     6
  9
$SPLINESEGS
 70
     8
  9
$HANDSEED
  5
E1
  9
$SURFTAB1
 70
     6
  9
$SURFTAB2
 70
     6
  9
$SURFTYPE
 70
     6
  9
$SURFU
 70
     6
  9
$SURFV
 70
     6
  9
$UCSBASE
  2

  9
$UCSNAME
  2

  9
$UCSORG
 10
0.0
 20
0.0
 30
0.0
  9
$UCSXDIR
 10
1.0
 20
0.0
 30
0.0
  9
$UCSYDIR
 10
0.0
 20
1.0
 30
0.0
  9
$UCSORTHOREF
  2

  9
$UCSORTHOVIEW
 70
     0
  9
$UCSORGTOP
 10
0.0
 20
0.0
 30
0.0
  9
$UCSORGBOTTOM
 10
0.0
 20
0.0
 30
0.0
  9
$UCSORGLEFT
 10
0.0
 20
0.0
 30
0.0
  9
$UCSORGRIGHT
 10
0.0
 20
0.0
 30
0.0
  9
$UCSORGFRONT
 10
0.0
 20
0.0
 30
0.0
  9
$UCSORGBACK
 10
0.0
 20
0.0
 30
0.0
  9
$PUCSBASE
  2

  9
$PUCSNAME
  2

  9
$PUCSORG
 10
0.0
 20
0.0
 30
0.0
  9
$PUCSXDIR
 10
1.0
 20
0.0
 30
0.0
  9
$PUCSYDIR
 10
0.0
 20
1.0
 30
0.0
  9
$PUCSORTHOREF
  2

  9
$PUCSORTHOVIEW
 70
     0
  9
$PUCSORGTOP
 10
0.0
 20
0.0
 30
0.0
  9
$PUCSORGBOTTOM
 10
0.0
 20
0.0
 30
0.0
  9
$PUCSORGLEFT
 10
0.0
 20
0.0
 30
0.0
  9
$PUCSORGRIGHT
 10
0.0
 20
0.0
 30
0.0
  9
$PUCSORGFRONT
 10
0.0
 20
0.0
 30
0.0
  9
$PUCSORGBACK
 10
0.0
 20
0.0
 30
0.0
  9
$USERI1
 70
     0
  9
$USERI2
 70
     0
  9
$USERI3
 70
     0
  9
$USERI4
 70
     0
  9
$USERI5
 70
     0
  9
$USERR1
 40
0.0
  9
$USERR2
 40
0.0
  9
$USERR3
 40
0.0
  9
$USERR4
 40
0.0
  9
$USERR5
 40
0.0
  9
$WORLDVIEW
 70
     1
  9
$SHADEDGE
 70
     3
  9
$SHADEDIF
 70
    70
  9
$TILEMODE
 70
     1
  9
$MAXACTVP
 70
    64
  9
$PINSBASE
 10
0.0
 20
0.0
 30
0.0
  9
$PLIMCHECK
 70
     0
  9
$PEXTMIN
 10
0.0
 20
0.0
 30
0.0
  9
$PEXTMAX
 10
1189.0
 20
841.0
 30
0.0
  9
$PLIMMIN
 10
0.0
 20
0.0
  9
$PLIMMAX
 10
1189.0
 20
841.0
  9
$UNITMODE
 70
     0
  9
$VISRETAIN
 70
     1
  9
$PLINEGEN
 70
     0
  9
$PSLTSCALE
 70
     1
  9
$TREEDEPTH
 70
  3020
  9
$CMLSTYLE
  2
Standard
  9
$CMLJUST
 70
     0
  9
$CMLSCALE
 40
20.0
  9
$PROXYGRAPHICS
 70
     1
  9
$MEASUREMENT
 70
     1
  9
$CELWEIGHT
370
    -1
  9
$ENDCAPS
280
     0
  9
$JOINSTYLE
280
     0
  9
$LWDISPLAY
290
     1
  9
$INSUNITS
 70
     4
  9
$HYPERLINKBASE
  1

  9
$STYLESHEET
  1

  9
$XEDIT
290
     1
  9
$CEPSNTYPE
380
     0
  9
$PSTYLEMODE
290
     1
  9
$FINGERPRINTGUID
  2
{7B05BA26-C442-46B6-BDA9-021C5C43BB09}
  9
$VERSIONGUID
  2
{FAEB1C32-E019-11D5-929B-00C0DF256EC4}
  9
$EXTNAMES
290
     1
  9
$PSVPSCALE
 40
0.0
  9
$OLESTARTUP
290
     0
  0
ENDSEC
  0
SECTION
  2
CLASSES
  0
CLASS
  1
ACDBDICTIONARYWDFLT
  2
AcDbDictionaryWithDefault
  3
ObjectDBX Classes
 90
        0
280
     0
281
     0
  0
CLASS
  1
VISUALSTYLE
  2
AcDbVisualStyle
  3
ObjectDBX Classes
 90
     4095
280
     0
281
     0
  0
CLASS
  1
MATERIAL
  2
AcDbMaterial
  3
ObjectDBX Classes
 90
     1153
280
     0
281
     0
  0
CLASS
  1
SCALE
  2
AcDbScale
  3
ObjectDBX Classes
 90
     1153
280
     0
281
     0
  0
CLASS
  1
SUN
  2
AcDbSun
  3
SCENEOE
 90
     1153
280
     0
281
     0
  0
CLASS
  1
ACDBPLACEHOLDER
  2
AcDbPlaceHolder
  3
ObjectDBX Classes
 90
        0
280
     0
281
     0
  0
CLASS
  1
LAYOUT
  2
AcDbLayout
  3
ObjectDBX Classes
 90
        0
280
     0
281
     0
  0
ENDSEC
  0
SECTION
  2
TABLES
  0
TABLE
  2
VPORT
  5
8
330
0
100
AcDbSymbolTable
 70
     1
  0
VPORT
  5
29
330
8
100
AcDbSymbolTableRecord
100
AcDbViewportTableRecord
  2
*Active
 70
     0
 10
0.0
 20
0.0
 11
1.0
 21
1.0
 12
59.45
 22
42.05
 13
0.0
 23
0.0
 14
10.0
 24
10.0
 15
10.0
 25
10.0
 16
0.0
 26
0.0
 36
1.0
 17
0.0
 27
0.0
 37
0.0
 40
84.1
 41
1.4137931034
 42
50.0
 43
0.0
 44
0.0
 50
0.0
 51
0.0
 71
     0
 72
  2000
 73
     1
 74
     3
 75
     0
 76
     0
 77
     0
 78
     0
281
     0
 65
     1
110
0.0
120
0.0
130
0.0
111
1.0
121
0.0
131
0.0
112
0.0
122
1.0
132
0.0
 79
     0
146
0.0
  0
ENDTAB
  0
TABLE
  2
LTYPE
  5
5
330
0
100
AcDbSymbolTable
 70
     6
  0
LTYPE
  5
14
330
5
100
AcDbSymbolTableRecord
100
AcDbLinetypeTableRecord
  2
ByBlock
 70
     0
  3

 72
    65
 73
     0
 40
0.0
  0
LTYPE
  5
15
330
5
100
AcDbSymbolTableRecord
100
AcDbLinetypeTableRecord
  2
ByLayer
 70
     0
  3

 72
    65
 73
     0
 40
0.0
  0
LTYPE
  5
16
330
5
100
AcDbSymbolTableRecord
100
AcDbLinetypeTableRecord
  2
Continuous
 70
     0
  3
Solid line
 72
    65
 73
     0
 40
0.0
  0
LTYPE
  5
6A
330
5
100
AcDbSymbolTableRecord
100
AcDbLinetypeTableRecord
  2
HIDDEN
 70
     0
  3
Hidden __ __ __ __ __ __ __ __ __ __ __ __ __ __
 72
    65
 73
     2
 40
0.1905
 49
0.127
 74
     0
 49
-0.0635
 74
     0
  0
LTYPE
  5
6B
330
5
100
AcDbSymbolTableRecord
100
AcDbLinetypeTableRecord
  2
PHANTOM
 70
     0
  3
Phantom ______  __  __  ______  __  __  ______
 72
    65
 73
     6
 40
1.27
 49
0.635
 74
     0
 49
-0.127
 74
     0
 49
0.127
 74
     0
 49
-0.127
 74
     0
 49
0.127
 74
     0
 49
-0.127
 74
     0
  0
LTYPE
  5
6C
330
5
100
AcDbSymbolTableRecord
100
AcDbLinetypeTableRecord
  2
CENTER
 70
     0
  3
Center ____ _ ____ _ ____ _ ____ _ ____ _ ____
 72
    65
 73
     4
 40
1.016
 49
0.635
 74
     0
 49
-0.127
 74
     0
 49
0.127
 74
     0
 49
-0.127
 74
     0
  0
LTYPE
  5
6D
330
5
100
AcDbSymbolTableRecord
100
AcDbLinetypeTableRecord
  2
CENTERX2
 70
     0
  3
Center (2x) ________  __  ________  __  _____
 72
    65
 73
     4
 40
2.032
 49
1.27
 74
     0
 49
-0.254
 74
     0
 49
0.254
 74
     0
 49
-0.254
 74
     0
  0
LTYPE
  5
6E
330
5
100
AcDbSymbolTableRecord
100
AcDbLinetypeTableRecord
  2
DOT2
 70
     0
  3
Dot (.5x) ........................................
 72
    65
 73
     2
 40
0.0635
 49
0.0
 74
     0
 49
-0.0635
 74
     0
  0
ENDTAB
  0
TABLE
  2
LAYER
  5
2
330
0
100
AcDbSymbolTable
 70
     3
  0
LAYER
  5
10
330
2
100
AcDbSymbolTableRecord
100
AcDbLayerTableRecord
  2
0
 70
     0
 62
     7
  6
Continuous
370
    -3
390
F
  0
LAYER
  5
6F
330
2
100
AcDbSymbolTableRecord
100
AcDbLayerTableRecord
  2
SLD-0
 70
     0
 62
    18
  6
Continuous
370
    -3
390
F
  0
LAYER
  5
70
330
2
100
AcDbSymbolTableRecord
100
AcDbLayerTableRecord
  2
215
 70
     0
 62
   219
  6
Continuous
370
    -3
390
F
  0
ENDTAB
  0
TABLE
  2
STYLE
  5
3
330
0
100
AcDbSymbolTable
 70
     3
  0
STYLE
  5
11
330
3
100
AcDbSymbolTableRecord
100
AcDbTextStyleTableRecord
  2
Standard
 70
     0
 40
0.0
 41
1.0
 50
0.0
 71
     0
 42
0.35
  3
txt
  4

  0
STYLE
  5
DD
330
3
100
AcDbSymbolTableRecord
100
AcDbTextStyleTableRecord
  2
SLDTEXTSTYLE0
 70
     0
 40
0.0
 41
0.7106109325
 50
0.0
 71
     0
 42
0.35
  3
TXT
  4

  0
STYLE
  5
DF
330
3
100
AcDbSymbolTableRecord
100
AcDbTextStyleTableRecord
  2
SLDTEXTSTYLE1
 70
     0
 40
0.0
 41
0.75
 50
0.0
 71
     0
 42
0.35
  3
TXT
  4

  0
ENDTAB
  0
TABLE
  2
VIEW
  5
6
330
0
100
AcDbSymbolTable
 70
     0
  0
ENDTAB
  0
TABLE
  2
UCS
  5
7
330
0
100
AcDbSymbolTable
 70
     0
  0
ENDTAB
  0
TABLE
  2
APPID
  5
9
330
0
100
AcDbSymbolTable
 70
     1
  0
APPID
  5
12
330
9
100
AcDbSymbolTableRecord
100
AcDbRegAppTableRecord
  2
ACAD
 70
     0
  0
ENDTAB
  0
TABLE
  2
DIMSTYLE
  5
A
330
0
100
AcDbSymbolTable
 70
     1
100
AcDbDimStyleTable
  0
DIMSTYLE
105
27
330
A
100
AcDbSymbolTableRecord
100
AcDbDimStyleTableRecord
  2
ISO-25
 70
     0
 41
2.5
 42
0.625
 43
3.75
 44
1.25
 73
     0
 74
     0
 77
     1
 78
     8
140
2.5
141
2.5
143
0.0393700787
147
0.625
171
     3
172
     1
178
     0
271
     2
272
     2
274
     3
278
    44
283
     0
284
     8
340
11
  0
ENDTAB
  0
TABLE
  2
BLOCK_RECORD
  5
1
330
0
100
AcDbSymbolTable
 70
     1
  0
BLOCK_RECORD
  5
1F
330
1
100
AcDbSymbolTableRecord
100
AcDbBlockTableRecord
  2
*Model_Space
340
22
  0
BLOCK_RECORD
  5
1B
330
1
100
AcDbSymbolTableRecord
100
AcDbBlockTableRecord
  2
*Paper_Space
340
1E
  0
ENDTAB
  0
ENDSEC
  0
SECTION
  2
BLOCKS
  0
BLOCK
  5
20
330
1F
100
AcDbEntity
  8
0
100
AcDbBlockBegin
  2
*Model_Space
 70
     0
 10
0.0
 20
0.0
 30
0.0
  3
*Model_Space
  1
*Model_Space
  0
ENDBLK
  5
21
330
1F
100
AcDbEntity
  8
0
100
AcDbBlockEnd
  0
BLOCK
  5
1C
330
1B
100
AcDbEntity
 67
     1
  8
0
100
AcDbBlockBegin
  2
*Paper_Space
 70
     0
 10
0.0
 20
0.0
 30
0.0
  3
*Paper_Space
  1
*Paper_Space
  0
ENDBLK
  5
1D
330
1B
100
AcDbEntity
 67
     1
  8
0
100
AcDbBlockEnd
  0
ENDSEC
  0
SECTION
  2
ENTITIES
  0
LINE
  5
71
330
1F
100
AcDbEntity
  8
215
  6
Continuous
 62
     2
100
AcDbLine
 10
-20.2349510372
 20
-6.8200929435
 30
0.0
 11
-14.7164650771
 21
-6.8200929435
 31
0.0
  0
LINE
  5
72
330
1F
100
AcDbEntity
  8
215
  6
Continuous
 62
     2
100
AcDbLine
 10
-14.7164650771
 20
-6.8200929435
 30
0.0
 11
-14.7164650771
 21
0.9901664467
 31
0.0
  0
LINE
  5
73
330
1F
100
AcDbEntity
  8
215
  6
Continuous
 62
     2
100
AcDbLine
 10
-14.7164650771
 20
0.9901664467
 30
0.0
 11
-20.2349510372
 21
0.9901664467
 31
0.0
  0
LINE
  5
74
330
1F
100
AcDbEntity
  8
215
  6
Continuous
 62
     2
100
AcDbLine
 10
-20.2349510372
 20
0.9901664467
 30
0.0
 11
-20.2349510372
 21
-6.8200929435
 31
0.0
  0
LINE
  5
75
330
1F
100
AcDbEntity
  8
215
  6
Continuous
100
AcDbLine
 10
-27.4808590845
 20
-9.5700929435
 30
0.0
 11
-7.4808590845
 21
-9.5700929435
 31
0.0
  0
LINE
  5
76
330
1F
100
AcDbEntity
  8
215
  6
Continuous
100
AcDbLine
 10
-7.4808590845
 20
13.1799070565
 30
0.0
 11
-27.4808590845
 21
13.1799070565
 31
0.0
  0
LINE
  5
77
330
1F
100
AcDbEntity
  8
SLD-0
100
AcDbLine
 10
-51.0114992288
 20
-9.636941353
 30
0.0
 11
-51.0114992288
 21
12.0928462323
 31
0.0
  0
LINE
  5
78
330
1F
100
AcDbEntity
  8
215
  6
Continuous
 62
     2
100
AcDbLine
 10
-43.7655911816
 20
-6.886941353
 30
0.0
 11
-38.2471052215
 21
-6.886941353
 31
0.0
  0
LINE
  5
79
330
1F
100
AcDbEntity
  8
215
  6
Continuous
 62
     2
100
AcDbLine
 10
-38.2471052215
 20
-6.886941353
 30
0.0
 11
-38.2471052215
 21
0.9233180372
 31
0.0
  0
LINE
  5
7A
330
1F
100
AcDbEntity
  8
215
  6
Continuous
 62
     2
100
AcDbLine
 10
-38.2471052215
 20
0.9233180372
 30
0.0
 11
-43.7655911816
 21
0.9233180372
 31
0.0
  0
LINE
  5
7B
330
1F
100
AcDbEntity
  8
215
  6
Continuous
 62
     2
100
AcDbLine
 10
-43.7655911816
 20
0.9233180372
 30
0.0
 11
-43.7655911816
 21
-6.886941353
 31
0.0
  0
LINE
  5
7C
330
1F
100
AcDbEntity
  8
215
  6
Continuous
100
AcDbLine
 10
-51.0114992288
 20
-9.636941353
 30
0.0
 11
-31.0114992288
 21
-9.636941353
 31
0.0
  0
LINE
  5
7D
330
1F
100
AcDbEntity
  8
215
  6
Continuous
100
AcDbLine
 10
-31.0114992288
 20
-9.636941353
 30
0.0
 11
-31.0114992288
 21
13.113058647
 31
0.0
  0
LINE
  5
7E
330
1F
100
AcDbEntity
  8
215
  6
Continuous
100
AcDbLine
 10
-31.0114992288
 20
13.113058647
 30
0.0
 11
-51.0114992288
 21
13.113058647
 31
0.0
  0
LINE
  5
7F
330
1F
100
AcDbEntity
  8
SLD-0
100
AcDbLine
 10
-51.0114992288
 20
-34.636941353
 30
0.0
 11
-51.0114992288
 21
-12.7558491044
 31
0.0
  0
LINE
  5
80
330
1F
100
AcDbEntity
  8
215
  6
Continuous
100
AcDbLine
 10
-31.0114992288
 20
-9.636941353
 30
0.0
 11
-31.0114992288
 21
13.113058647
 31
0.0
  0
LINE
  5
81
330
1F
100
AcDbEntity
  8
215
  6
Continuous
 62
     2
100
AcDbLine
 10
-0.2349510372
 20
-6.8200929435
 30
0.0
 11
5.2835349229
 21
-6.8200929435
 31
0.0
  0
LINE
  5
82
330
1F
100
AcDbEntity
  8
215
  6
Continuous
 62
     2
100
AcDbLine
 10
5.2835349229
 20
-6.8200929435
 30
0.0
 11
5.2835349229
 21
0.9901664467
 31
0.0
  0
LINE
  5
83
330
1F
100
AcDbEntity
  8
215
  6
Continuous
 62
     2
100
AcDbLine
 10
5.2835349229
 20
0.9901664467
 30
0.0
 11
-0.2349510372
 21
0.9901664467
 31
0.0
  0
LINE
  5
84
330
1F
100
AcDbEntity
  8
215
  6
Continuous
 62
     2
100
AcDbLine
 10
-0.2349510372
 20
0.9901664467
 30
0.0
 11
-0.2349510372
 21
-6.8200929435
 31
0.0
  0
LINE
  5
85
330
1F
100
AcDbEntity
  8
215
  6
Continuous
100
AcDbLine
 10
-7.4808590845
 20
-9.5700929435
 30
0.0
 11
12.5191409155
 21
-9.5700929435
 31
0.0
  0
LINE
  5
86
330
1F
100
AcDbEntity
  8
215
  6
Continuous
100
AcDbLine
 10
12.5191409155
 20
-9.5700929435
 30
0.0
 11
12.5191409155
 21
13.1799070565
 31
0.0
  0
LINE
  5
87
330
1F
100
AcDbEntity
  8
215
  6
Continuous
100
AcDbLine
 10
12.5191409155
 20
13.1799070565
 30
0.0
 11
-7.4808590845
 21
13.1799070565
 31
0.0
  0
LINE
  5
88
330
1F
100
AcDbEntity
  8
215
  6
Continuous
100
AcDbLine
 10
12.5191409155
 20
-9.5700929435
 30
0.0
 11
12.5191409155
 21
13.1799070565
 31
0.0
  0
LINE
  5
89
330
1F
100
AcDbEntity
  8
215
  6
Continuous
 62
     2
100
AcDbLine
 10
-19.5451402922
 20
-30.8438105197
 30
0.0
 11
-15.4062758222
 21
-30.8438105197
 31
0.0
  0
LINE
  5
8A
330
1F
100
AcDbEntity
  8
215
  6
Continuous
 62
     2
100
AcDbLine
 10
-15.4062758222
 20
-30.8438105197
 30
0.0
 11
-15.4062758222
 21
-24.9861159771
 31
0.0
  0
LINE
  5
8B
330
1F
100
AcDbEntity
  8
215
  6
Continuous
 62
     2
100
AcDbLine
 10
-15.4062758222
 20
-24.9861159771
 30
0.0
 11
-19.5451402922
 21
-24.9861159771
 31
0.0
  0
LINE
  5
8C
330
1F
100
AcDbEntity
  8
215
  6
Continuous
 62
     2
100
AcDbLine
 10
-19.5451402922
 20
-24.9861159771
 30
0.0
 11
-19.5451402922
 21
-30.8438105197
 31
0.0
  0
LINE
  5
8D
330
1F
100
AcDbEntity
  8
215
  6
Continuous
100
AcDbLine
 10
-27.4808590845
 20
-34.5700929435
 30
0.0
 11
-7.4808590845
 21
-34.5700929435
 31
0.0
  0
LINE
  5
8E
330
1F
100
AcDbEntity
  8
215
  6
Continuous
100
AcDbLine
 10
-7.4808590845
 20
-11.8200929435
 30
0.0
 11
-27.4808590845
 21
-11.8200929435
 31
0.0
  0
LINE
  5
8F
330
1F
100
AcDbEntity
  8
SLD-0
100
AcDbLine
 10
-27.4808590845
 20
-9.5700929435
 30
0.0
 11
-27.4808590845
 21
12.0928462323
 31
0.0
  0
LINE
  5
90
330
1F
100
AcDbEntity
  8
215
  6
Continuous
 62
     2
100
AcDbLine
 10
-43.0757804366
 20
-30.9106589292
 30
0.0
 11
-38.9369159665
 21
-30.9106589292
 31
0.0
  0
LINE
  5
91
330
1F
100
AcDbEntity
  8
215
  6
Continuous
 62
     2
100
AcDbLine
 10
-38.9369159665
 20
-30.9106589292
 30
0.0
 11
-38.9369159665
 21
-25.0529643866
 31
0.0
  0
LINE
  5
92
330
1F
100
AcDbEntity
  8
215
  6
Continuous
 62
     2
100
AcDbLine
 10
-38.9369159665
 20
-25.0529643866
 30
0.0
 11
-43.0757804366
 21
-25.0529643866
 31
0.0
  0
LINE
  5
93
330
1F
100
AcDbEntity
  8
215
  6
Continuous
 62
     2
100
AcDbLine
 10
-43.0757804366
 20
-25.0529643866
 30
0.0
 11
-43.0757804366
 21
-30.9106589292
 31
0.0
  0
LINE
  5
94
330
1F
100
AcDbEntity
  8
215
  6
Continuous
100
AcDbLine
 10
-51.0114992288
 20
-34.636941353
 30
0.0
 11
-31.0114992288
 21
-34.636941353
 31
0.0
  0
LINE
  5
95
330
1F
100
AcDbEntity
  8
215
  6
Continuous
100
AcDbLine
 10
-31.0114992288
 20
-34.636941353
 30
0.0
 11
-31.0114992288
 21
-11.886941353
 31
0.0
  0
LINE
  5
96
330
1F
100
AcDbEntity
  8
215
  6
Continuous
100
AcDbLine
 10
-31.0114992288
 20
-11.886941353
 30
0.0
 11
-51.0114992288
 21
-11.886941353
 31
0.0
  0
LINE
  5
97
330
1F
100
AcDbEntity
  8
SLD-0
100
AcDbLine
 10
-27.4808590845
 20
-34.5700929435
 30
0.0
 11
-27.4808590845
 21
-12.7558491044
 31
0.0
  0
LINE
  5
98
330
1F
100
AcDbEntity
  8
215
  6
Continuous
100
AcDbLine
 10
-31.0114992288
 20
-34.636941353
 30
0.0
 11
-31.0114992288
 21
-11.886941353
 31
0.0
  0
LINE
  5
99
330
1F
100
AcDbEntity
  8
215
  6
Continuous
 62
     2
100
AcDbLine
 10
0.4548597078
 20
-30.8438105197
 30
0.0
 11
4.5937241778
 21
-30.8438105197
 31
0.0
  0
LINE
  5
9A
330
1F
100
AcDbEntity
  8
215
  6
Continuous
 62
     2
100
AcDbLine
 10
4.5937241778
 20
-30.8438105197
 30
0.0
 11
4.5937241778
 21
-24.9861159771
 31
0.0
  0
LINE
  5
9B
330
1F
100
AcDbEntity
  8
215
  6
Continuous
 62
     2
100
AcDbLine
 10
4.5937241778
 20
-24.9861159771
 30
0.0
 11
0.4548597078
 21
-24.9861159771
 31
0.0
  0
LINE
  5
9C
330
1F
100
AcDbEntity
  8
215
  6
Continuous
 62
     2
100
AcDbLine
 10
0.4548597078
 20
-24.9861159771
 30
0.0
 11
0.4548597078
 21
-30.8438105197
 31
0.0
  0
LINE
  5
9D
330
1F
100
AcDbEntity
  8
215
  6
Continuous
100
AcDbLine
 10
-7.4808590845
 20
-34.5700929435
 30
0.0
 11
12.5191409155
 21
-34.5700929435
 31
0.0
  0
LINE
  5
9E
330
1F
100
AcDbEntity
  8
215
  6
Continuous
100
AcDbLine
 10
12.5191409155
 20
-34.5700929435
 30
0.0
 11
12.5191409155
 21
-11.8200929435
 31
0.0
  0
LINE
  5
9F
330
1F
100
AcDbEntity
  8
215
  6
Continuous
100
AcDbLine
 10
12.5191409155
 20
-11.8200929435
 30
0.0
 11
-7.4808590845
 21
-11.8200929435
 31
0.0
  0
LINE
  5
A0
330
1F
100
AcDbEntity
  8
215
  6
Continuous
100
AcDbLine
 10
12.5191409155
 20
-34.5700929435
 30
0.0
 11
12.5191409155
 21
-11.8200929435
 31
0.0
  0
LINE
  5
A1
330
1F
100
AcDbEntity
  8
215
  6
Continuous
100
AcDbLine
 10
-27.4808590845
 20
-59.5700929435
 30
0.0
 11
-7.4808590845
 21
-59.5700929435
 31
0.0
  0
LINE
  5
A2
330
1F
100
AcDbEntity
  8
SLD-0
100
AcDbLine
 10
-27.5688231989
 20
-46.978382313
 30
0.0
 11
-27.5688231989
 21
-37.9727075044
 31
0.0
  0
LINE
  5
A3
330
1F
100
AcDbEntity
  8
215
  6
Continuous
100
AcDbLine
 10
-7.4808590845
 20
-59.5700929435
 30
0.0
 11
12.5191409155
 21
-59.5700929435
 31
0.0
  0
LINE
  5
A4
330
1F
100
AcDbEntity
  8
215
  6
Continuous
100
AcDbLine
 10
12.5191409155
 20
-59.5700929435
 30
0.0
 11
12.5191409155
 21
-49.5700929435
 31
0.0
  0
LINE
  5
A5
330
1F
100
AcDbEntity
  8
215
  6
Continuous
100
AcDbLine
 10
12.5191409155
 20
-59.5700929435
 30
0.0
 11
12.5191409155
 21
-49.5700929435
 31
0.0
  0
LINE
  5
A6
330
1F
100
AcDbEntity
  8
SLD-0
  6
Continuous
 62
   179
100
AcDbLine
 10
-27.4808590845
 20
-49.5700929435
 30
0.0
 11
-7.4808590845
 21
-49.5700929435
 31
0.0
  0
LINE
  5
A7
330
1F
100
AcDbEntity
  8
SLD-0
  6
Continuous
 62
   179
100
AcDbLine
 10
-7.4808590845
 20
-49.5700929435
 30
0.0
 11
12.5191409155
 21
-49.5700929435
 31
0.0
  0
LINE
  5
A8
330
1F
100
AcDbEntity
  8
215
  6
Continuous
100
AcDbLine
 10
-27.5688231989
 20
-46.978382313
 30
0.0
 11
-7.5688231989
 21
-46.978382313
 31
0.0
  0
LINE
  5
A9
330
1F
100
AcDbEntity
  8
SLD-0
100
AcDbLine
 10
-27.4808590845
 20
-59.5700929435
 30
0.0
 11
-27.4808590845
 21
-50.4520016235
 31
0.0
  0
LINE
  5
AA
330
1F
100
AcDbEntity
  8
215
  6
Continuous
100
AcDbLine
 10
-7.5688231989
 20
-46.978382313
 30
0.0
 11
12.4311768011
 21
-46.978382313
 31
0.0
  0
LINE
  5
AB
330
1F
100
AcDbEntity
  8
215
  6
Continuous
100
AcDbLine
 10
12.4311768011
 20
-46.978382313
 30
0.0
 11
12.4311768011
 21
-36.978382313
 31
0.0
  0
LINE
  5
AC
330
1F
100
AcDbEntity
  8
215
  6
Continuous
100
AcDbLine
 10
12.4311768011
 20
-46.978382313
 30
0.0
 11
12.4311768011
 21
-36.978382313
 31
0.0
  0
LINE
  5
AD
330
1F
100
AcDbEntity
  8
SLD-0
  6
Continuous
 62
   179
100
AcDbLine
 10
-27.5688231989
 20
-36.978382313
 30
0.0
 11
-7.5688231989
 21
-36.978382313
 31
0.0
  0
LINE
  5
AE
330
1F
100
AcDbEntity
  8
SLD-0
  6
Continuous
 62
   179
100
AcDbLine
 10
-7.5688231989
 20
-36.978382313
 30
0.0
 11
12.4311768011
 21
-36.978382313
 31
0.0
  0
CIRCLE
  5
AF
330
1F
100
AcDbEntity
  8
SLD-0
  6
Continuous
 62
     2
100
AcDbCircle
 10
-20.4788516734
 20
8.4287994138
 30
0.0
 40
0.8000000000000007
  0
CIRCLE
  5
B0
330
1F
100
AcDbEntity
  8
SLD-0
  6
Continuous
 62
     2
100
AcDbCircle
 10
-14.4788511377
 20
8.4287994138
 30
0.0
 40
0.8000000000000007
  0
CIRCLE
  5
B1
330
1F
100
AcDbEntity
  8
SLD-0
  6
Continuous
 62
     2
100
AcDbCircle
 10
-11.4788511377
 20
8.4287994138
 30
0.0
 40
0.8000000000000007
  0
CIRCLE
  5
B2
330
1F
100
AcDbEntity
  8
SLD-0
  6
Continuous
 62
     2
100
AcDbCircle
 10
-23.4788516734
 20
8.4287994138
 30
0.0
 40
0.8000000000000007
  0
CIRCLE
  5
B3
330
1F
100
AcDbEntity
  8
SLD-0
  6
Continuous
 62
     2
100
AcDbCircle
 10
-17.4788511377
 20
8.4287994138
 30
0.0
 40
0.8000000000000007
  0
CIRCLE
  5
B4
330
1F
100
AcDbEntity
  8
SLD-0
  6
Continuous
 62
     2
100
AcDbCircle
 10
-13.2308590845
 20
6.1799070565
 30
0.0
 40
0.8000000000000007
  0
CIRCLE
  5
B5
330
1F
100
AcDbEntity
  8
SLD-0
  6
Continuous
 62
     2
100
AcDbCircle
 10
-21.7308590845
 20
6.1799070565
 30
0.0
 40
0.8000000000000007
  0
CIRCLE
  5
B6
330
1F
100
AcDbEntity
  8
SLD-0
  6
Continuous
 62
     2
100
AcDbCircle
 10
-44.0094918178
 20
8.3619510043
 30
0.0
 40
0.8000000000000043
  0
CIRCLE
  5
B7
330
1F
100
AcDbEntity
  8
SLD-0
  6
Continuous
 62
     2
100
AcDbCircle
 10
-38.0094912821
 20
8.3619510043
 30
0.0
 40
0.8000000000000043
  0
CIRCLE
  5
B8
330
1F
100
AcDbEntity
  8
SLD-0
  6
Continuous
 62
     2
100
AcDbCircle
 10
-35.0094912821
 20
8.3619510043
 30
0.0
 40
0.7999999999999972
  0
CIRCLE
  5
B9
330
1F
100
AcDbEntity
  8
SLD-0
  6
Continuous
 62
     2
100
AcDbCircle
 10
-47.0094918178
 20
8.3619510043
 30
0.0
 40
0.7999999999999972
  0
CIRCLE
  5
BA
330
1F
100
AcDbEntity
  8
SLD-0
  6
Continuous
 62
     2
100
AcDbCircle
 10
-41.0094912821
 20
8.3619510043
 30
0.0
 40
0.7999999999999972
  0
CIRCLE
  5
BB
330
1F
100
AcDbEntity
  8
SLD-0
  6
Continuous
 62
     2
100
AcDbCircle
 10
-36.7614992288
 20
6.113058647
 30
0.0
 40
0.8000000000000043
  0
CIRCLE
  5
BC
330
1F
100
AcDbEntity
  8
SLD-0
  6
Continuous
 62
     2
100
AcDbCircle
 10
-45.2614992288
 20
6.113058647
 30
0.0
 40
0.7999999999999972
  0
CIRCLE
  5
BD
330
1F
100
AcDbEntity
  8
SLD-0
  6
Continuous
 62
     2
100
AcDbCircle
 10
-0.4788516734
 20
8.4287994138
 30
0.0
 40
0.8000000000000005
  0
CIRCLE
  5
BE
330
1F
100
AcDbEntity
  8
SLD-0
  6
Continuous
 62
     2
100
AcDbCircle
 10
5.5211488623
 20
8.4287994138
 30
0.0
 40
0.8000000000000016
  0
CIRCLE
  5
BF
330
1F
100
AcDbEntity
  8
SLD-0
  6
Continuous
 62
     2
100
AcDbCircle
 10
8.5211488623
 20
8.4287994138
 30
0.0
 40
0.8000000000000007
  0
CIRCLE
  5
C0
330
1F
100
AcDbEntity
  8
SLD-0
  6
Continuous
 62
     2
100
AcDbCircle
 10
-3.4788516734
 20
8.4287994138
 30
0.0
 40
0.8000000000000007
  0
CIRCLE
  5
C1
330
1F
100
AcDbEntity
  8
SLD-0
  6
Continuous
 62
     2
100
AcDbCircle
 10
2.5211488623
 20
8.4287994138
 30
0.0
 40
0.8000000000000007
  0
CIRCLE
  5
C2
330
1F
100
AcDbEntity
  8
SLD-0
  6
Continuous
 62
     2
100
AcDbCircle
 10
6.7691409155
 20
6.1799070565
 30
0.0
 40
0.8000000000000007
  0
CIRCLE
  5
C3
330
1F
100
AcDbEntity
  8
SLD-0
  6
Continuous
 62
     2
100
AcDbCircle
 10
-1.7308590845
 20
6.1799070565
 30
0.0
 40
0.8
  0
CIRCLE
  5
C4
330
1F
100
AcDbEntity
  8
SLD-0
  6
Continuous
 62
     2
100
AcDbCircle
 10
-20.4788516734
 20
-16.5712005862
 30
0.0
 40
0.8000000000000007
  0
CIRCLE
  5
C5
330
1F
100
AcDbEntity
  8
SLD-0
  6
Continuous
 62
     2
100
AcDbCircle
 10
-14.4788511377
 20
-16.5712005862
 30
0.0
 40
0.8000000000000007
  0
CIRCLE
  5
C6
330
1F
100
AcDbEntity
  8
SLD-0
  6
Continuous
 62
     2
100
AcDbCircle
 10
-11.4788511377
 20
-16.5712005862
 30
0.0
 40
0.8000000000000007
  0
CIRCLE
  5
C7
330
1F
100
AcDbEntity
  8
SLD-0
  6
Continuous
 62
     2
100
AcDbCircle
 10
-23.4788516734
 20
-16.5712005862
 30
0.0
 40
0.8000000000000007
  0
CIRCLE
  5
C8
330
1F
100
AcDbEntity
  8
SLD-0
  6
Continuous
 62
     2
100
AcDbCircle
 10
-17.4788511377
 20
-16.5712005862
 30
0.0
 40
0.8000000000000007
  0
CIRCLE
  5
C9
330
1F
100
AcDbEntity
  8
SLD-0
  6
Continuous
 62
     2
100
AcDbCircle
 10
-13.2308590845
 20
-18.8200929435
 30
0.0
 40
0.8000000000000007
  0
CIRCLE
  5
CA
330
1F
100
AcDbEntity
  8
SLD-0
  6
Continuous
 62
     2
100
AcDbCircle
 10
-21.7308590845
 20
-18.8200929435
 30
0.0
 40
0.8000000000000007
  0
CIRCLE
  5
CB
330
1F
100
AcDbEntity
  8
SLD-0
  6
Continuous
 62
     2
100
AcDbCircle
 10
-44.0094918178
 20
-16.6380489957
 30
0.0
 40
0.8000000000000043
  0
CIRCLE
  5
CC
330
1F
100
AcDbEntity
  8
SLD-0
  6
Continuous
 62
     2
100
AcDbCircle
 10
-38.0094912821
 20
-16.6380489957
 30
0.0
 40
0.8000000000000043
  0
CIRCLE
  5
CD
330
1F
100
AcDbEntity
  8
SLD-0
  6
Continuous
 62
     2
100
AcDbCircle
 10
-35.0094912821
 20
-16.6380489957
 30
0.0
 40
0.7999999999999972
  0
CIRCLE
  5
CE
330
1F
100
AcDbEntity
  8
SLD-0
  6
Continuous
 62
     2
100
AcDbCircle
 10
-47.0094918178
 20
-16.6380489957
 30
0.0
 40
0.7999999999999972
  0
CIRCLE
  5
CF
330
1F
100
AcDbEntity
  8
SLD-0
  6
Continuous
 62
     2
100
AcDbCircle
 10
-41.0094912821
 20
-16.6380489957
 30
0.0
 40
0.7999999999999972
  0
CIRCLE
  5
D0
330
1F
100
AcDbEntity
  8
SLD-0
  6
Continuous
 62
     2
100
AcDbCircle
 10
-36.7614992288
 20
-18.886941353
 30
0.0
 40
0.8000000000000043
  0
CIRCLE
  5
D1
330
1F
100
AcDbEntity
  8
SLD-0
  6
Continuous
 62
     2
100
AcDbCircle
 10
-45.2614992288
 20
-18.886941353
 30
0.0
 40
0.7999999999999972
  0
CIRCLE
  5
D2
330
1F
100
AcDbEntity
  8
SLD-0
  6
Continuous
 62
     2
100
AcDbCircle
 10
-0.4788516734
 20
-16.5712005862
 30
0.0
 40
0.8000000000000005
  0
CIRCLE
  5
D3
330
1F
100
AcDbEntity
  8
SLD-0
  6
Continuous
 62
     2
100
AcDbCircle
 10
5.5211488623
 20
-16.5712005862
 30
0.0
 40
0.8000000000000016
  0
CIRCLE
  5
D4
330
1F
100
AcDbEntity
  8
SLD-0
  6
Continuous
 62
     2
100
AcDbCircle
 10
8.5211488623
 20
-16.5712005862
 30
0.0
 40
0.8000000000000007
  0
CIRCLE
  5
D5
330
1F
100
AcDbEntity
  8
SLD-0
  6
Continuous
 62
     2
100
AcDbCircle
 10
-3.4788516734
 20
-16.5712005862
 30
0.0
 40
0.8000000000000007
  0
CIRCLE
  5
D6
330
1F
100
AcDbEntity
  8
SLD-0
  6
Continuous
 62
     2
100
AcDbCircle
 10
2.5211488623
 20
-16.5712005862
 30
0.0
 40
0.8000000000000007
  0
CIRCLE
  5
D7
330
1F
100
AcDbEntity
  8
SLD-0
  6
Continuous
 62
     2
100
AcDbCircle
 10
6.7691409155
 20
-18.8200929435
 30
0.0
 40
0.8000000000000007
  0
CIRCLE
  5
D8
330
1F
100
AcDbEntity
  8
SLD-0
  6
Continuous
 62
     2
100
AcDbCircle
 10
-1.7308590845
 20
-18.8200929435
 30
0.0
 40
0.8
  0
CIRCLE
  5
D9
330
1F
100
AcDbEntity
  8
SLD-0
  6
Continuous
 62
     2
100
AcDbCircle
 10
-17.4808590845
 20
-54.5700929435
 30
0.0
 40
2.249999999999998
  0
CIRCLE
  5
DA
330
1F
100
AcDbEntity
  8
SLD-0
  6
Continuous
 62
     2
100
AcDbCircle
 10
2.5191409155
 20
-54.5700929435
 30
0.0
 40
2.25
  0
CIRCLE
  5
DB
330
1F
100
AcDbEntity
  8
SLD-0
  6
Continuous
 62
     2
100
AcDbCircle
 10
-17.5688231989
 20
-41.978382313
 30
0.0
 40
2.750000000000004
  0
CIRCLE
  5
DC
330
1F
100
AcDbEntity
  8
SLD-0
  6
Continuous
 62
     2
100
AcDbCircle
 10
2.4311768011
 20
-41.978382313
 30
0.0
 40
2.750000000000005
  0
MTEXT
  5
DE
330
1F
100
AcDbEntity
  8
SLD-0
 62
   179
100
AcDbMText
 10
-91.9603223517
 20
8.5892861314
 30
0.0
 40
5.9090909091
 41
0.0
 71
     1
 72
     1
  1
5 mm,
  7
SLDTEXTSTYLE0
 73
     1
 44
1.0
  0
MTEXT
  5
E0
330
1F
100
AcDbEntity
  8
SLD-0
 62
   179
100
AcDbMText
 10
-86.6617063344
 20
-42.1846064472
 30
0.0
 40
5.9090909091
 41
0.0
 71
     1
 72
     1
  1
Stopper
  7
SLDTEXTSTYLE1
 73
     1
 44
1.0
  0
ENDSEC
  0
SECTION
  2
OBJECTS
  0
DICTIONARY
  5
C
330
0
100
AcDbDictionary
281
     1
  3
ACAD_GROUP
350
D
  3
ACAD_LAYOUT
350
1A
  3
ACAD_MLINESTYLE
350
17
  3
ACAD_PLOTSETTINGS
350
19
  3
ACAD_PLOTSTYLENAME
350
E
  3
ACAD_SCALELIST
350
47
  0
DICTIONARY
  5
D
102
{ACAD_REACTORS
330
C
102
}
330
C
100
AcDbDictionary
281
     1
  0
DICTIONARY
  5
1A
102
{ACAD_REACTORS
330
C
102
}
330
C
100
AcDbDictionary
281
     1
  3
Layout1
350
1E
  3
Model
350
22
  0
DICTIONARY
  5
17
102
{ACAD_REACTORS
330
C
102
}
330
C
100
AcDbDictionary
281
     1
  3
Standard
350
18
  0
DICTIONARY
  5
19
102
{ACAD_REACTORS
330
C
102
}
330
C
100
AcDbDictionary
281
     1
  0
ACDBDICTIONARYWDFLT
  5
E
102
{ACAD_REACTORS
330
C
102
}
330
C
100
AcDbDictionary
281
     1
  3
Normal
350
F
100
AcDbDictionaryWithDefault
340
F
  0
DICTIONARY
  5
47
102
{ACAD_REACTORS
330
C
102
}
330
C
100
AcDbDictionary
281
     1
  3
A0
350
48
  3
A1
350
49
  3
A2
350
4A
  3
A3
350
4B
  3
A4
350
4C
  3
A5
350
4D
  3
A6
350
4E
  3
A7
350
4F
  3
A8
350
50
  3
A9
350
51
  3
B0
350
52
  3
B1
350
53
  3
B2
350
54
  3
B3
350
55
  3
B4
350
56
  3
B5
350
57
  3
B6
350
58
  3
B7
350
59
  3
B8
350
5A
  3
B9
350
5B
  3
C0
350
5C
  3
C1
350
5D
  3
C2
350
5E
  3
C3
350
5F
  3
C4
350
60
  3
C5
350
61
  3
C6
350
62
  3
C7
350
63
  3
C8
350
64
  3
C9
350
65
  3
D0
350
66
  3
D1
350
67
  3
D2
350
68
  0
LAYOUT
  5
1E
102
{ACAD_REACTORS
330
1A
102
}
330
1A
100
AcDbPlotSettings
  1

  2
none_device
  4
ISO_A0_(1189.00_x_841.00_MM)
  6

 40
7.5
 41
20.0
 42
7.5
 43
20.0
 44
1189.0
 45
841.0
 46
0.0
 47
0.0
 48
0.0
 49
0.0
140
0.0
141
0.0
142
100.0
143
1.0
 70
  4832
 72
     0
 73
     0
 74
     1
  7

 75
     0
147
1.0
148
0.0
149
0.0
100
AcDbLayout
  1
Layout1
 70
     1
 71
     1
 10
0.0
 20
0.0
 11
1189.0
 21
841.0
 12
0.0
 22
0.0
 32
0.0
 14
0.0
 24
0.0
 34
0.0
 15
1189.0
 25
841.0
 35
0.0
146
0.0
 13
0.0
 23
0.0
 33
0.0
 16
1.0
 26
0.0
 36
0.0
 17
0.0
 27
1.0
 37
0.0
 76
     0
330
1B
  0
LAYOUT
  5
22
102
{ACAD_REACTORS
330
1A
102
}
330
1A
100
AcDbPlotSettings
  1

  2
none_device
  4
Letter_(8.50_x_11.00_Inches)
  6

 40
6.35
 41
6.35
 42
6.35000508
 43
6.35000508
 44
215.9
 45
279.4
 46
0.0
 47
0.0
 48
0.0
 49
0.0
140
0.0
141
0.0
142
1.0
143
1.0
 70
  1712
 72
     1
 73
     0
 74
     0
  7

 75
     0
147
1.0
148
0.0
149
0.0
100
AcDbLayout
  1
Model
 70
     1
 71
     0
 10
0.0
 20
0.0
 11
29.7
 21
21.0
 12
0.0
 22
0.0
 32
0.0
 14
0.0
 24
0.0
 34
0.0
 15
118.9
 25
84.1
 35
0.0
146
0.0
 13
0.0
 23
0.0
 33
0.0
 16
1.0
 26
0.0
 36
0.0
 17
0.0
 27
1.0
 37
0.0
 76
     0
330
1F
331
29
  0
MLINESTYLE
  5
18
102
{ACAD_REACTORS
330
17
102
}
330
17
100
AcDbMlineStyle
  2
Standard
 70
     0
  3

 62
   256
 51
90.0
 52
90.0
 71
     2
 49
0.5
 62
   256
  6
BYLAYER
 49
-0.5
 62
   256
  6
BYLAYER
  0
ACDBPLACEHOLDER
  5
F
102
{ACAD_REACTORS
330
E
102
}
330
E
  0
SCALE
  5
48
102
{ACAD_REACTORS
330
47
102
}
330
47
100
AcDbScale
 70
     0
300
1:1
140
1.0
141
1.0
290
     1
  0
SCALE
  5
49
102
{ACAD_REACTORS
330
47
102
}
330
47
100
AcDbScale
 70
     0
300
1:2
140
1.0
141
2.0
290
     0
  0
SCALE
  5
4A
102
{ACAD_REACTORS
330
47
102
}
330
47
100
AcDbScale
 70
     0
300
1:4
140
1.0
141
4.0
290
     0
  0
SCALE
  5
4B
102
{ACAD_REACTORS
330
47
102
}
330
47
100
AcDbScale
 70
     0
300
1:5
140
1.0
141
5.0
290
     0
  0
SCALE
  5
4C
102
{ACAD_REACTORS
330
47
102
}
330
47
100
AcDbScale
 70
     0
300
1:8
140
1.0
141
8.0
290
     0
  0
SCALE
  5
4D
102
{ACAD_REACTORS
330
47
102
}
330
47
100
AcDbScale
 70
     0
300
1:10
140
1.0
141
10.0
290
     0
  0
SCALE
  5
4E
102
{ACAD_REACTORS
330
47
102
}
330
47
100
AcDbScale
 70
     0
300
1:16
140
1.0
141
16.0
290
     0
  0
SCALE
  5
4F
102
{ACAD_REACTORS
330
47
102
}
330
47
100
AcDbScale
 70
     0
300
1:20
140
1.0
141
20.0
290
     0
  0
SCALE
  5
50
102
{ACAD_REACTORS
330
47
102
}
330
47
100
AcDbScale
 70
     0
300
1:30
140
1.0
141
30.0
290
     0
  0
SCALE
  5
51
102
{ACAD_REACTORS
330
47
102
}
330
47
100
AcDbScale
 70
     0
300
1:40
140
1.0
141
40.0
290
     0
  0
SCALE
  5
52
102
{ACAD_REACTORS
330
47
102
}
330
47
100
AcDbScale
 70
     0
300
1:50
140
1.0
141
50.0
290
     0
  0
SCALE
  5
53
102
{ACAD_REACTORS
330
47
102
}
330
47
100
AcDbScale
 70
     0
300
1:100
140
1.0
141
100.0
290
     0
  0
SCALE
  5
54
102
{ACAD_REACTORS
330
47
102
}
330
47
100
AcDbScale
 70
     0
300
2:1
140
2.0
141
1.0
290
     0
  0
SCALE
  5
55
102
{ACAD_REACTORS
330
47
102
}
330
47
100
AcDbScale
 70
     0
300
4:1
140
4.0
141
1.0
290
     0
  0
SCALE
  5
56
102
{ACAD_REACTORS
330
47
102
}
330
47
100
AcDbScale
 70
     0
300
8:1
140
8.0
141
1.0
290
     0
  0
SCALE
  5
57
102
{ACAD_REACTORS
330
47
102
}
330
47
100
AcDbScale
 70
     0
300
10:1
140
10.0
141
1.0
290
     0
  0
SCALE
  5
58
102
{ACAD_REACTORS
330
47
102
}
330
47
100
AcDbScale
 70
     0
300
100:1
140
100.0
141
1.0
290
     0
  0
SCALE
  5
59
102
{ACAD_REACTORS
330
47
102
}
330
47
100
AcDbScale
 70
     0
300
1/128" = 1'-0"
140
0.0078125
141
12.0
290
     0
  0
SCALE
  5
5A
102
{ACAD_REACTORS
330
47
102
}
330
47
100
AcDbScale
 70
     0
300
1/64" = 1'-0"
140
0.015625
141
12.0
290
     0
  0
SCALE
  5
5B
102
{ACAD_REACTORS
330
47
102
}
330
47
100
AcDbScale
 70
     0
300
1/32" = 1'-0"
140
0.03125
141
12.0
290
     0
  0
SCALE
  5
5C
102
{ACAD_REACTORS
330
47
102
}
330
47
100
AcDbScale
 70
     0
300
1/16" = 1'-0"
140
0.0625
141
12.0
290
     0
  0
SCALE
  5
5D
102
{ACAD_REACTORS
330
47
102
}
330
47
100
AcDbScale
 70
     0
300
3/32" = 1'-0"
140
0.09375
141
12.0
290
     0
  0
SCALE
  5
5E
102
{ACAD_REACTORS
330
47
102
}
330
47
100
AcDbScale
 70
     0
300
1/8" = 1'-0"
140
0.125
141
12.0
290
     0
  0
SCALE
  5
5F
102
{ACAD_REACTORS
330
47
102
}
330
47
100
AcDbScale
 70
     0
300
3/16" = 1'-0"
140
0.1875
141
12.0
290
     0
  0
SCALE
  5
60
102
{ACAD_REACTORS
330
47
102
}
330
47
100
AcDbScale
 70
     0
300
1/4" = 1'-0"
140
0.25
141
12.0
290
     0
  0
SCALE
  5
61
102
{ACAD_REACTORS
330
47
102
}
330
47
100
AcDbScale
 70
     0
300
3/8" = 1'-0"
140
0.375
141
12.0
290
     0
  0
SCALE
  5
62
102
{ACAD_REACTORS
330
47
102
}
330
47
100
AcDbScale
 70
     0
300
1/2" = 1'-0"
140
0.5
141
12.0
290
     0
  0
SCALE
  5
63
102
{ACAD_REACTORS
330
47
102
}
330
47
100
AcDbScale
 70
     0
300
3/4" = 1'-0"
140
0.75
141
12.0
290
     0
  0
SCALE
  5
64
102
{ACAD_REACTORS
330
47
102
}
330
47
100
AcDbScale
 70
     0
300
1" = 1'-0"
140
1.0
141
12.0
290
     0
  0
SCALE
  5
65
102
{ACAD_REACTORS
330
47
102
}
330
47
100
AcDbScale
 70
     0
300
1-1/2" = 1'-0"
140
1.5
141
12.0
290
     0
  0
SCALE
  5
66
102
{ACAD_REACTORS
330
47
102
}
330
47
100
AcDbScale
 70
     0
300
3" = 1'-0"
140
3.0
141
12.0
290
     0
  0
SCALE
  5
67
102
{ACAD_REACTORS
330
47
102
}
330
47
100
AcDbScale
 70
     0
300
6" = 1'-0"
140
6.0
141
12.0
290
     0
  0
SCALE
  5
68
102
{ACAD_REACTORS
330
47
102
}
330
47
100
AcDbScale
 70
     0
300
1'-0" = 1'-0"
140
12.0
141
12.0
290
     0
  0
ENDSEC
  0
EOF
