solid OpenSCAD_Model
  facet normal 0.970942 0.239315 0
    outer loop
      vertex 64 39 10
      vertex 63.5418 40.8589 0
      vertex 63.5418 40.8589 10
    endloop
  endfacet
  facet normal 0.970942 0.239315 0
    outer loop
      vertex 63.5418 40.8589 0
      vertex 64 39 10
      vertex 64 39 0
    endloop
  endfacet
  facet normal -1 0 0
    outer loop
      vertex -63.8838 -39.9573 0
      vertex -63.8838 39.9573 10
      vertex -63.8838 39.9573 0
    endloop
  endfacet
  facet normal -1 -0 0
    outer loop
      vertex -63.8838 39.9573 10
      vertex -63.8838 -39.9573 0
      vertex -63.8838 -39.9573 10
    endloop
  endfacet
  facet normal 0 1 -0
    outer loop
      vertex 60.4821 42.9708 0
      vertex -59.5179 42.9708 10
      vertex 60.4821 42.9708 10
    endloop
  endfacet
  facet normal 0 1 0
    outer loop
      vertex -59.5179 42.9708 10
      vertex 60.4821 42.9708 0
      vertex -59.5179 42.9708 0
    endloop
  endfacet
  facet normal 0 0 1
    outer loop
      vertex 59.5 41.25 10
      vertex 64 39 10
      vertex 63.5418 40.8589 10
    endloop
  endfacet
  facet normal 0 0 1
    outer loop
      vertex 64 39 10
      vertex 59.5 41.25 10
      vertex 64 -39 10
    endloop
  endfacet
  facet normal -0 0 1
    outer loop
      vertex 59.5 41.25 10
      vertex 63.5418 40.8589 10
      vertex 62.2723 42.2919 10
    endloop
  endfacet
  facet normal 0 0 1
    outer loop
      vertex 59.5 -41.25 10
      vertex 64 -39 10
      vertex 59.5 41.25 10
    endloop
  endfacet
  facet normal 0 0 1
    outer loop
      vertex 59.5 41.25 10
      vertex 62.2723 42.2919 10
      vertex 60.4821 42.9708 10
    endloop
  endfacet
  facet normal 0 0 1
    outer loop
      vertex 64 -39 10
      vertex 59.5 -41.25 10
      vertex 63.5418 -40.8589 10
    endloop
  endfacet
  facet normal 0 0 1
    outer loop
      vertex 63.5418 -40.8589 10
      vertex 59.5 -41.25 10
      vertex 62.2723 -42.2919 10
    endloop
  endfacet
  facet normal -0 0 1
    outer loop
      vertex -59.5179 42.9708 10
      vertex 59.5 41.25 10
      vertex 60.4821 42.9708 10
    endloop
  endfacet
  facet normal -0 0 1
    outer loop
      vertex -61.4184 42.7401 10
      vertex -59.5 41.25 10
      vertex -59.5179 42.9708 10
    endloop
  endfacet
  facet normal 0 0 1
    outer loop
      vertex 59.5 41.25 10
      vertex -59.5179 42.9708 10
      vertex -59.5 41.25 10
    endloop
  endfacet
  facet normal 0 0 1
    outer loop
      vertex 62.2723 -42.2919 10
      vertex 59.5 -41.25 10
      vertex 60.4821 -42.9708 10
    endloop
  endfacet
  facet normal 0 0 1
    outer loop
      vertex -59.5179 -42.9708 10
      vertex 59.5 -41.25 10
      vertex -59.5 -41.25 10
    endloop
  endfacet
  facet normal 0 0 1
    outer loop
      vertex 59.5 -41.25 10
      vertex -59.5179 -42.9708 10
      vertex 60.4821 -42.9708 10
    endloop
  endfacet
  facet normal 0 0 1
    outer loop
      vertex -59.5 41.25 10
      vertex -63.8838 39.9573 10
      vertex -59.5 -41.25 10
    endloop
  endfacet
  facet normal -0 0 1
    outer loop
      vertex -62.994 41.6525 10
      vertex -59.5 41.25 10
      vertex -61.4184 42.7401 10
    endloop
  endfacet
  facet normal -0 0 1
    outer loop
      vertex -63.8838 -39.9573 10
      vertex -59.5 -41.25 10
      vertex -63.8838 39.9573 10
    endloop
  endfacet
  facet normal 0 0 1
    outer loop
      vertex -59.5 41.25 10
      vertex -62.994 41.6525 10
      vertex -63.8838 39.9573 10
    endloop
  endfacet
  facet normal 0 -0 1
    outer loop
      vertex -62.994 -41.6525 10
      vertex -59.5 -41.25 10
      vertex -63.8838 -39.9573 10
    endloop
  endfacet
  facet normal 0 0 1
    outer loop
      vertex -59.5 -41.25 10
      vertex -61.4184 -42.7401 10
      vertex -59.5179 -42.9708 10
    endloop
  endfacet
  facet normal 0 0 1
    outer loop
      vertex -59.5 -41.25 10
      vertex -62.994 -41.6525 10
      vertex -61.4184 -42.7401 10
    endloop
  endfacet
  facet normal 0.354604 -0.935017 0
    outer loop
      vertex 60.4821 -42.9708 0
      vertex 62.2723 -42.2919 10
      vertex 60.4821 -42.9708 10
    endloop
  endfacet
  facet normal 0.354604 -0.935017 0
    outer loop
      vertex 62.2723 -42.2919 10
      vertex 60.4821 -42.9708 0
      vertex 62.2723 -42.2919 0
    endloop
  endfacet
  facet normal 0.354604 0.935017 -0
    outer loop
      vertex 62.2723 42.2919 0
      vertex 60.4821 42.9708 10
      vertex 62.2723 42.2919 10
    endloop
  endfacet
  facet normal 0.354604 0.935017 0
    outer loop
      vertex 60.4821 42.9708 10
      vertex 62.2723 42.2919 0
      vertex 60.4821 42.9708 0
    endloop
  endfacet
  facet normal 0.74851 0.663123 0
    outer loop
      vertex 63.5418 40.8589 10
      vertex 62.2723 42.2919 0
      vertex 62.2723 42.2919 10
    endloop
  endfacet
  facet normal 0.74851 0.663123 0
    outer loop
      vertex 62.2723 42.2919 0
      vertex 63.5418 40.8589 10
      vertex 63.5418 40.8589 0
    endloop
  endfacet
  facet normal -0.120535 0.992709 0
    outer loop
      vertex -59.5179 42.9708 0
      vertex -61.4184 42.7401 10
      vertex -59.5179 42.9708 10
    endloop
  endfacet
  facet normal -0.120535 0.992709 0
    outer loop
      vertex -61.4184 42.7401 10
      vertex -59.5179 42.9708 0
      vertex -61.4184 42.7401 0
    endloop
  endfacet
  facet normal -0.568066 0.822983 0
    outer loop
      vertex -61.4184 42.7401 0
      vertex -62.994 41.6525 10
      vertex -61.4184 42.7401 10
    endloop
  endfacet
  facet normal -0.568066 0.822983 0
    outer loop
      vertex -62.994 41.6525 10
      vertex -61.4184 42.7401 0
      vertex -62.994 41.6525 0
    endloop
  endfacet
  facet normal -0.885456 0.464723 0
    outer loop
      vertex -63.8838 39.9573 0
      vertex -62.994 41.6525 10
      vertex -62.994 41.6525 0
    endloop
  endfacet
  facet normal -0.885456 0.464723 0
    outer loop
      vertex -62.994 41.6525 10
      vertex -63.8838 39.9573 0
      vertex -63.8838 39.9573 10
    endloop
  endfacet
  facet normal 1 -0 0
    outer loop
      vertex 64 -39 10
      vertex 64 39 0
      vertex 64 39 10
    endloop
  endfacet
  facet normal 1 0 0
    outer loop
      vertex 64 39 0
      vertex 64 -39 10
      vertex 64 -39 0
    endloop
  endfacet
  facet normal 0.74851 -0.663123 0
    outer loop
      vertex 62.2723 -42.2919 10
      vertex 63.5418 -40.8589 0
      vertex 63.5418 -40.8589 10
    endloop
  endfacet
  facet normal 0.74851 -0.663123 0
    outer loop
      vertex 63.5418 -40.8589 0
      vertex 62.2723 -42.2919 10
      vertex 62.2723 -42.2919 0
    endloop
  endfacet
  facet normal 0.970942 -0.239315 0
    outer loop
      vertex 63.5418 -40.8589 10
      vertex 64 -39 0
      vertex 64 -39 10
    endloop
  endfacet
  facet normal 0.970942 -0.239315 0
    outer loop
      vertex 64 -39 0
      vertex 63.5418 -40.8589 10
      vertex 63.5418 -40.8589 0
    endloop
  endfacet
  facet normal -0.885456 -0.464723 0
    outer loop
      vertex -62.994 -41.6525 0
      vertex -63.8838 -39.9573 10
      vertex -63.8838 -39.9573 0
    endloop
  endfacet
  facet normal -0.885456 -0.464723 0
    outer loop
      vertex -63.8838 -39.9573 10
      vertex -62.994 -41.6525 0
      vertex -62.994 -41.6525 10
    endloop
  endfacet
  facet normal 0 -1 0
    outer loop
      vertex -59.5179 -42.9708 0
      vertex 60.4821 -42.9708 10
      vertex -59.5179 -42.9708 10
    endloop
  endfacet
  facet normal 0 -1 -0
    outer loop
      vertex 60.4821 -42.9708 10
      vertex -59.5179 -42.9708 0
      vertex 60.4821 -42.9708 0
    endloop
  endfacet
  facet normal 0 0 -1
    outer loop
      vertex 60.4821 -42.9708 0
      vertex 64 -39 0
      vertex 63.5418 -40.8589 0
    endloop
  endfacet
  facet normal 0 0 -1
    outer loop
      vertex 64 -39 0
      vertex 44.5 -26.25 0
      vertex 64 39 0
    endloop
  endfacet
  facet normal 0 0 -1
    outer loop
      vertex 60.4821 -42.9708 0
      vertex 63.5418 -40.8589 0
      vertex 62.2723 -42.2919 0
    endloop
  endfacet
  facet normal 0 0 -1
    outer loop
      vertex 44.5 26.25 0
      vertex 64 39 0
      vertex 44.5 -26.25 0
    endloop
  endfacet
  facet normal -0 0 -1
    outer loop
      vertex 64 -39 0
      vertex 60.4821 -42.9708 0
      vertex 44.5 -26.25 0
    endloop
  endfacet
  facet normal 0 -0 -1
    outer loop
      vertex 60.4821 42.9708 0
      vertex 64 39 0
      vertex 44.5 26.25 0
    endloop
  endfacet
  facet normal 0 0 -1
    outer loop
      vertex 64 39 0
      vertex 60.4821 42.9708 0
      vertex 63.5418 40.8589 0
    endloop
  endfacet
  facet normal 0 0 -1
    outer loop
      vertex -59.5179 -42.9708 0
      vertex 44.5 -26.25 0
      vertex 60.4821 -42.9708 0
    endloop
  endfacet
  facet normal 0 0 -1
    outer loop
      vertex -63.8838 -39.9573 0
      vertex -44.5 -26.25 0
      vertex -59.5179 -42.9708 0
    endloop
  endfacet
  facet normal -0 0 -1
    outer loop
      vertex 44.5 -26.25 0
      vertex -59.5179 -42.9708 0
      vertex -44.5 -26.25 0
    endloop
  endfacet
  facet normal 0 0 -1
    outer loop
      vertex 63.5418 40.8589 0
      vertex 60.4821 42.9708 0
      vertex 62.2723 42.2919 0
    endloop
  endfacet
  facet normal 0 0 -1
    outer loop
      vertex -59.5179 42.9708 0
      vertex 44.5 26.25 0
      vertex -44.5 26.25 0
    endloop
  endfacet
  facet normal 0 0 -1
    outer loop
      vertex 44.5 26.25 0
      vertex -59.5179 42.9708 0
      vertex 60.4821 42.9708 0
    endloop
  endfacet
  facet normal -0 0 -1
    outer loop
      vertex -44.5 -26.25 0
      vertex -63.8838 -39.9573 0
      vertex -44.5 26.25 0
    endloop
  endfacet
  facet normal 0 0 -1
    outer loop
      vertex -63.8838 -39.9573 0
      vertex -59.5179 -42.9708 0
      vertex -61.4184 -42.7401 0
    endloop
  endfacet
  facet normal 0 0 -1
    outer loop
      vertex -63.8838 39.9573 0
      vertex -44.5 26.25 0
      vertex -63.8838 -39.9573 0
    endloop
  endfacet
  facet normal 0 0 -1
    outer loop
      vertex -63.8838 -39.9573 0
      vertex -61.4184 -42.7401 0
      vertex -62.994 -41.6525 0
    endloop
  endfacet
  facet normal 0 0 -1
    outer loop
      vertex -44.5 26.25 0
      vertex -63.8838 39.9573 0
      vertex -59.5179 42.9708 0
    endloop
  endfacet
  facet normal 0 0 -1
    outer loop
      vertex -59.5179 42.9708 0
      vertex -63.8838 39.9573 0
      vertex -61.4184 42.7401 0
    endloop
  endfacet
  facet normal 0 0 -1
    outer loop
      vertex -61.4184 42.7401 0
      vertex -63.8838 39.9573 0
      vertex -62.994 41.6525 0
    endloop
  endfacet
  facet normal -0.568066 -0.822983 0
    outer loop
      vertex -62.994 -41.6525 0
      vertex -61.4184 -42.7401 10
      vertex -62.994 -41.6525 10
    endloop
  endfacet
  facet normal -0.568066 -0.822983 -0
    outer loop
      vertex -61.4184 -42.7401 10
      vertex -62.994 -41.6525 0
      vertex -61.4184 -42.7401 0
    endloop
  endfacet
  facet normal -0.120535 -0.992709 0
    outer loop
      vertex -61.4184 -42.7401 0
      vertex -59.5179 -42.9708 10
      vertex -61.4184 -42.7401 10
    endloop
  endfacet
  facet normal -0.120535 -0.992709 -0
    outer loop
      vertex -59.5179 -42.9708 10
      vertex -61.4184 -42.7401 0
      vertex -59.5179 -42.9708 0
    endloop
  endfacet
  facet normal 1 -0 0
    outer loop
      vertex -59.5 -41.25 10
      vertex -59.5 41.25 2
      vertex -59.5 41.25 10
    endloop
  endfacet
  facet normal 1 0 0
    outer loop
      vertex -59.5 41.25 2
      vertex -59.5 -41.25 10
      vertex -59.5 -41.25 2
    endloop
  endfacet
  facet normal -1 0 0
    outer loop
      vertex 59.5 -41.25 2
      vertex 59.5 41.25 10
      vertex 59.5 41.25 2
    endloop
  endfacet
  facet normal -1 -0 0
    outer loop
      vertex 59.5 41.25 10
      vertex 59.5 -41.25 2
      vertex 59.5 -41.25 10
    endloop
  endfacet
  facet normal 0 -1 0
    outer loop
      vertex -59.5 41.25 2
      vertex 59.5 41.25 10
      vertex -59.5 41.25 10
    endloop
  endfacet
  facet normal 0 -1 -0
    outer loop
      vertex 59.5 41.25 10
      vertex -59.5 41.25 2
      vertex 59.5 41.25 2
    endloop
  endfacet
  facet normal 0 0 1
    outer loop
      vertex 59.5 41.25 2
      vertex 44.5 26.25 2
      vertex 59.5 -41.25 2
    endloop
  endfacet
  facet normal 0 0 1
    outer loop
      vertex 59.5 41.25 2
      vertex -44.5 26.25 2
      vertex 44.5 26.25 2
    endloop
  endfacet
  facet normal 0 0 1
    outer loop
      vertex -44.5 26.25 2
      vertex -59.5 41.25 2
      vertex -44.5 -26.25 2
    endloop
  endfacet
  facet normal -0 0 1
    outer loop
      vertex -59.5 41.25 2
      vertex -44.5 26.25 2
      vertex 59.5 41.25 2
    endloop
  endfacet
  facet normal -0 0 1
    outer loop
      vertex 44.5 -26.25 2
      vertex 59.5 -41.25 2
      vertex 44.5 26.25 2
    endloop
  endfacet
  facet normal -0 0 1
    outer loop
      vertex -44.5 -26.25 2
      vertex 59.5 -41.25 2
      vertex 44.5 -26.25 2
    endloop
  endfacet
  facet normal 0 0 1
    outer loop
      vertex -44.5 -26.25 2
      vertex -59.5 -41.25 2
      vertex 59.5 -41.25 2
    endloop
  endfacet
  facet normal 0 0 1
    outer loop
      vertex -59.5 -41.25 2
      vertex -44.5 -26.25 2
      vertex -59.5 41.25 2
    endloop
  endfacet
  facet normal 0 1 -0
    outer loop
      vertex 59.5 -41.25 2
      vertex -59.5 -41.25 10
      vertex 59.5 -41.25 10
    endloop
  endfacet
  facet normal 0 1 0
    outer loop
      vertex -59.5 -41.25 10
      vertex 59.5 -41.25 2
      vertex -59.5 -41.25 2
    endloop
  endfacet
  facet normal 1 -0 0
    outer loop
      vertex -44.5 -26.25 2
      vertex -44.5 26.25 0
      vertex -44.5 26.25 2
    endloop
  endfacet
  facet normal 1 0 0
    outer loop
      vertex -44.5 26.25 0
      vertex -44.5 -26.25 2
      vertex -44.5 -26.25 0
    endloop
  endfacet
  facet normal -1 0 0
    outer loop
      vertex 44.5 -26.25 0
      vertex 44.5 26.25 2
      vertex 44.5 26.25 0
    endloop
  endfacet
  facet normal -1 -0 0
    outer loop
      vertex 44.5 26.25 2
      vertex 44.5 -26.25 0
      vertex 44.5 -26.25 2
    endloop
  endfacet
  facet normal 0 -1 0
    outer loop
      vertex -44.5 26.25 0
      vertex 44.5 26.25 2
      vertex -44.5 26.25 2
    endloop
  endfacet
  facet normal 0 -1 -0
    outer loop
      vertex 44.5 26.25 2
      vertex -44.5 26.25 0
      vertex 44.5 26.25 0
    endloop
  endfacet
  facet normal 0 1 -0
    outer loop
      vertex 44.5 -26.25 0
      vertex -44.5 -26.25 2
      vertex 44.5 -26.25 2
    endloop
  endfacet
  facet normal 0 1 0
    outer loop
      vertex -44.5 -26.25 2
      vertex 44.5 -26.25 0
      vertex -44.5 -26.25 0
    endloop
  endfacet
endsolid OpenSCAD_Model
